<svg width="12" height="10" viewBox="0 0 12 10" fill="none" xmlns="http://www.w3.org/2000/svg">
<path fill-rule="evenodd" clip-rule="evenodd" d="M6.15559 1.44502C6.63297 0.967627 7.28045 0.699432 7.95559 0.699432C8.63072 0.699432 9.2782 0.967627 9.75559 1.44502C10.233 1.92241 10.5012 2.56988 10.5012 3.24502C10.5012 3.92015 10.233 4.56763 9.75559 5.04502L9.10059 5.70001L5.50059 9.30001L1.90058 5.70001L1.24558 5.04502C0.768195 4.56763 0.5 3.92015 0.5 3.24502C0.5 2.56988 0.768195 1.92241 1.24558 1.44502C1.72297 0.967627 2.37045 0.699432 3.04558 0.699432C3.72072 0.699432 4.36819 0.967627 4.84558 1.44502L5.50059 2.10002L6.15559 1.44502Z" stroke="#151515" stroke-linecap="round" stroke-linejoin="bevel"/>
</svg>
